<?xml version="1.0" encoding="utf-8"?>
<!-- Generator: Adobe Illustrator 22.0.1, SVG Export Plug-In . SVG Version: 6.00 Build 0)  -->
<svg version="1.1" id="圖層_1" xmlns="http://www.w3.org/2000/svg" xmlns:xlink="http://www.w3.org/1999/xlink" x="0px" y="0px"
	 viewBox="0 0 120 120" enable-background="new 0 0 120 120" xml:space="preserve">
<g>
	<path fill="#FFFFFF" d="M100.116,0c2.029,0.936,2.615,2.545,2.61,4.722c-0.051,23.242-0.039,46.484-0.009,69.726
		c0.001,1.045-0.242,1.657-1.204,2.208c-2.749,1.575-4.825,3.863-6.069,6.776c-0.501,1.174-1.116,1.643-2.329,1.419
		c-0.26-0.048-0.537-0.007-0.968-0.007c0-0.473,0.005-0.886-0.001-1.299c-0.056-3.708,0.114-7.436-0.223-11.119
		c-0.56-6.132-3.523-11.08-8.316-14.913c-0.618-0.494-0.854-0.966-0.852-1.742c0.027-7.617,0.037-15.234,0.011-22.851
		c-0.037-10.911-7.513-19.91-18.233-21.995c-12.391-2.41-24.646,6.506-26.079,19.056c-0.954,8.351,1.989,15.165,8.503,20.421
		c0.973,0.785,0.544,1.653,0.608,2.358c-2.131,0.774-4.283,1.306-6.2,2.295c-8.017,4.136-12.193,10.798-12.483,19.82
		c-0.105,3.271-0.017,6.549-0.017,9.967c-0.766,0-1.461,0.052-2.141-0.026c-0.264-0.03-0.617-0.304-0.722-0.554
		c-1.479-3.512-3.87-6.192-7.182-8.073c-0.242-0.137-0.4-0.512-0.484-0.809c-0.082-0.289-0.019-0.62-0.019-0.932
		c0-23.242,0.02-46.484-0.032-69.726C18.28,2.543,18.865,0.935,20.895,0C47.303,0,73.71,0,100.116,0z"/>
	<path fill="#FFFFFF" d="M3.319,120c-0.189-0.118-0.373-0.247-0.569-0.352c-1.509-0.812-2.288-2.378-1.932-3.893
		c0.385-1.637,1.736-2.737,3.466-2.779c1.123-0.027,2.246-0.005,3.488-0.005c0-2.047,0-3.988,0-5.929
		c0-2.578-0.026-5.156,0.016-7.732c0.013-0.782-0.194-1.221-0.926-1.643c-3.521-2.028-5.114-6.095-4.013-9.972
		c1.088-3.831,4.665-6.449,8.689-6.359c3.969,0.089,7.426,2.888,8.303,6.845c0.66,2.976-0.117,5.64-2.107,7.937
		c9.717,7.62,25.633,8.183,36.292,0.077c-3.217-5.061-2.96-9.503,0.736-12.716c3.283-2.854,8.212-2.856,11.487-0.004
		c3.696,3.218,3.954,7.656,0.738,12.719c9.974,7.58,25.443,8.049,36.298,0.003c-0.235-0.33-0.474-0.664-0.711-0.998
		c-2.834-3.993-1.847-9.572,2.18-12.317c4.11-2.803,9.646-1.692,12.346,2.477c2.685,4.146,1.423,9.726-2.85,12.243
		c-0.797,0.469-1.038,0.944-1.029,1.823c0.043,4.451,0.02,8.902,0.02,13.545c0.988,0,1.944-0.001,2.901,0
		c2.229,0.004,3.617,0.959,4.05,2.785c0.393,1.66-0.442,3.098-2.36,4.073c-0.06,0.03-0.092,0.114-0.137,0.173
		c-5.312,0-10.625,0-15.938,0c-0.045-0.059-0.078-0.142-0.138-0.173c-1.917-0.974-2.753-2.41-2.363-4.071
		c0.425-1.813,1.833-2.784,4.047-2.787c0.956-0.002,1.912,0,2.844,0c0-3.444,0-6.702,0-9.996
		c-14.047,8.231-28.03,8.227-42.125-0.045c0,1.694,0,3.317,0,4.94c0,1.667,0,3.333,0,5.103c1.245,0,2.368-0.023,3.49,0.005
		c1.732,0.043,3.072,1.137,3.46,2.781c0.357,1.513-0.423,3.082-1.93,3.891c-0.196,0.105-0.379,0.234-0.568,0.352
		c-5.312,0-10.625,0-15.937,0c-0.045-0.059-0.078-0.142-0.138-0.173c-1.917-0.974-2.753-2.41-2.363-4.071
		c0.425-1.813,1.833-2.784,4.047-2.787c0.956-0.002,1.912,0,2.844,0c0-3.444,0-6.702,0-9.996
		c-14.047,8.231-28.03,8.227-42.063-0.008c0,3.325,0,6.613,0,10.006c1.183,0,2.306-0.023,3.428,0.005
		c1.732,0.043,3.072,1.137,3.46,2.781c0.357,1.513-0.423,3.082-1.93,3.891c-0.196,0.105-0.379,0.234-0.568,0.352
		C13.944,120,8.632,120,3.319,120z"/>
	<path fill="#FFFFFF" d="M68.794,59.851c7.552-0.762,15.143,5.003,16.009,12.561c0.463,4.038,0.082,8.172,0.082,12.432
		c-1.291,0-2.758,0-4.225,0c-1.445,0-2.89-0.027-4.334,0.012c-0.618,0.017-0.955-0.14-1.232-0.756
		c-2.822-6.258-7.688-9.731-14.548-9.742c-6.909-0.011-11.791,3.482-14.68,9.761c-0.135,0.293-0.492,0.686-0.751,0.69
		c-3.034,0.048-6.069,0.031-9.275,0.031c0.368-4.876-0.688-9.721,0.794-14.398c1.696-5.351,5.434-8.668,10.982-10.3
		c0,1.763-0.004,3.38,0.001,4.997c0.008,2.59,1.394,3.994,3.962,3.999c4.373,0.007,8.747,0.006,13.12,0
		c2.637-0.004,4.002-1.395,4.01-4.07c0.005-1.64,0.007-3.28,0.013-4.92C68.723,60.075,68.756,60.002,68.794,59.851z"/>
	<path fill="#FFFFFF" d="M61.613,62.085c-2.335,0-4.555,0-6.966,0c0-0.42,0-0.828,0-1.236c0-3.707-0.046-7.415,0.02-11.121
		c0.033-1.834-0.695-3.06-2.227-4.052c-4.663-3.02-7.096-7.363-7.147-12.925c-0.041-4.481,3.661-8.112,8.117-8.138
		c4.481-0.026,8.219,3.516,8.245,8.009c0.057,9.638,0.02,19.276,0.018,28.915C61.674,61.685,61.642,61.833,61.613,62.085z"/>
	<path fill="#FFFFFF" d="M75.741,53.332c-2.358-0.26-4.599-0.506-7.031-0.774c0-0.278,0-0.688,0-1.098
		c0-5.974,0.002-11.948-0.001-17.922c-0.003-7.484-3.802-12.812-10.905-15.309c-0.1-0.035-0.179-0.127-0.282-0.203
		c2.236-0.792,5.739-0.586,8.623,0.658c5.689,2.452,9.156,6.794,9.482,12.967c0.36,6.814,0.102,13.661,0.113,20.494
		C75.741,52.532,75.741,52.919,75.741,53.332z"/>
</g>
</svg>
