<?xml version="1.0" encoding="utf-8"?>
<!-- Generator: Adobe Illustrator 22.0.1, SVG Export Plug-In . SVG Version: 6.00 Build 0)  -->
<svg version="1.1" id="圖層_1" xmlns="http://www.w3.org/2000/svg" xmlns:xlink="http://www.w3.org/1999/xlink" x="0px" y="0px"
	 viewBox="0 0 120 120" enable-background="new 0 0 120 120" xml:space="preserve">
<path fill="#FFFFFF" d="M33.461,5.234c1.61,0.314,3.254,0.51,4.823,0.963c8.768,2.541,14.156,8.537,17.07,16.972
	c1.165,3.372,1.72,6.873,1.723,10.438c0.019,20.695,0.013,41.391,0.014,62.086c0,0.284-0.025,0.569-0.081,0.867
	c-0.9-6.271-3.779-11.4-8.79-15.283c-5.005-3.877-10.769-5.117-17.124-4.644c0-23.884,0-47.642,0-71.399
	C31.885,5.234,32.673,5.234,33.461,5.234z"/>
<path fill="#FFFFFF" d="M52.152,115.234c-2.626-3.175-6.008-5.125-9.999-5.979c-1.457-0.312-2.977-0.441-4.47-0.446
	c-10.31-0.038-20.619-0.019-30.929-0.019c-0.426,0-0.853,0-1.359,0c0-25.909,0-51.767,0-77.7c2.07,0,4.158,0,6.358,0
	c0,23.727,0,47.438,0,71.255c0.494,0,0.877,0,1.261,0c8.055,0,16.109,0.066,24.163-0.021c6.257-0.068,11.834,1.743,16.751,5.578
	c0.837,0.653,1.677,0.94,2.744,0.91c2.469-0.069,4.941-0.065,7.408,0c0.994,0.027,1.772-0.247,2.546-0.851
	c3.529-2.752,7.464-4.636,11.92-5.291c1.375-0.203,2.777-0.306,4.167-0.312c8.269-0.028,16.538-0.014,24.808-0.014
	c0.392,0,0.785,0,1.29,0c0-21.601,0-43.165,0-64.882c2.24,0,4.372,0,6.504,0c0,23.775,0,47.552,0,71.328
	c-10.795,0-21.589-0.017-32.383,0.019c-1.49,0.005-3.01,0.13-4.461,0.452c-3.971,0.88-7.364,2.805-9.991,5.974
	C63.037,115.234,57.595,115.234,52.152,115.234z"/>
<path fill="#FFFFFF" d="M63.539,102.161c0-0.604,0-1.026,0-1.448c0-21.797,0.004-43.594-0.007-65.392
	c-0.001-1.536-0.056-3.078-0.188-4.608c-0.062-0.729,0.179-1.083,0.79-1.419c5.333-2.923,11.036-4.58,17.109-4.686
	c6.87-0.12,13.743-0.034,20.616-0.035c0.139,0,0.28,0.022,0.492,0.039c0,23.724,0,47.433,0,71.278c-0.366,0-0.744,0-1.123,0
	c-6.155-0.004-12.31-0.04-18.465-0.002c-6.795,0.043-13.072,1.789-18.595,5.886C64.027,101.88,63.87,101.959,63.539,102.161z"/>
<path fill="#FFFFFF" d="M18.285,18.179c2.139,0,4.202,0,6.343,0c0,21.594,0,43.134,0,64.829c0.49,0,0.903-0.006,1.316,0.001
	c3.613,0.063,7.253-0.134,10.831,0.249c7.355,0.788,13.332,7.282,13.833,14.644c0.009,0.139-0.016,0.281-0.028,0.458
	c-1.419-0.467-2.773-1.097-4.193-1.34c-2.845-0.486-5.721-0.996-8.595-1.072c-6.083-0.16-12.172-0.049-18.259-0.049
	c-0.39,0-0.781,0-1.248,0C18.285,69.982,18.285,44.119,18.285,18.179z"/>
</svg>
