<?xml version="1.0" encoding="utf-8"?>
<!-- Generator: Adobe Illustrator 22.0.1, SVG Export Plug-In . SVG Version: 6.00 Build 0)  -->
<svg version="1.1" id="圖層_1" xmlns="http://www.w3.org/2000/svg" xmlns:xlink="http://www.w3.org/1999/xlink" x="0px" y="0px"
	 viewBox="0 0 120 120" enable-background="new 0 0 120 120" xml:space="preserve">
<g>
	<path fill="#88753F" d="M120.312,30.938c-0.229,1.178-0.432,2.362-0.69,3.534c-2.906,13.207-14.759,22.347-28.516,21.996
		c-13.022-0.332-24.364-10.266-26.613-23.31C61.756,17.276,72.902,2.301,88.836,0.445c0.262-0.031,0.516-0.139,0.773-0.211
		c1.719,0,3.438,0,5.156,0c0.258,0.072,0.511,0.18,0.773,0.211c11.148,1.303,20.56,9.282,23.633,20.104
		c0.487,1.714,0.766,3.487,1.141,5.232C120.312,27.5,120.312,29.219,120.312,30.938z M83.926,43.595
		c1.374-0.049,2.374-0.678,3.14-1.781c2.583-3.717,5.188-7.418,7.785-11.126c2.753-3.931,5.522-7.852,8.252-11.799
		c1.572-2.273,0.61-5.036-1.923-5.665c-1.458-0.362-2.851,0.243-3.896,1.732c-4.167,5.942-8.327,11.89-12.489,17.836
		c-1.231,1.758-2.471,3.51-3.68,5.283c-0.792,1.162-0.87,2.401-0.207,3.652C81.548,42.939,82.604,43.505,83.926,43.595z
		 M85.139,13.128c-1.901,0.009-3.488,1.598-3.494,3.498c-0.007,1.898,1.571,3.502,3.469,3.526c1.944,0.024,3.579-1.613,3.554-3.558
		C88.642,14.695,87.039,13.119,85.139,13.128z M99.202,43.59c1.897,0.009,3.501-1.569,3.527-3.468
		c0.026-1.898-1.538-3.515-3.438-3.556c-1.943-0.042-3.593,1.581-3.584,3.525C95.716,41.991,97.304,43.581,99.202,43.59z"/>
	<path fill="#88753F" d="M31.016,0.234c2.007,0.453,4.06,0.761,6.013,1.383c12.198,3.89,20.199,15.551,19.502,28.303
		c-0.696,12.735-10.086,23.542-22.624,26.037c-17.96,3.574-34.573-10.88-33.562-29.201C1.091,13.23,11.642,2.012,25.086,0.445
		c0.262-0.031,0.516-0.139,0.773-0.211C27.578,0.234,29.297,0.234,31.016,0.234z M25.482,45.197
		c-0.007-0.09,0.014,0.142,0.027,0.374c0.112,2.058,1.176,3.253,2.908,3.264c1.775,0.011,2.931-1.235,2.922-3.34
		c-0.003-0.826,0.327-1.114,1.018-1.417c4.106-1.796,6.381-4.995,6.549-9.441c0.151-4.006-1.746-7.111-5.426-8.654
		c-1.859-0.78-2.317-1.736-2.141-3.522c0.138-1.402,0.028-2.829,0.028-4.415c0.402,0.241,0.571,0.332,0.73,0.438
		c1.673,1.113,3.32,0.92,4.329-0.509c0.984-1.393,0.637-3.175-0.969-4.269c-0.923-0.629-1.957-1.138-3.007-1.523
		c-0.756-0.277-1.104-0.559-1.134-1.434c-0.059-1.762-1.28-2.879-2.907-2.865c-1.622,0.013-2.836,1.157-2.856,2.918
		c-0.011,0.947-0.362,1.298-1.189,1.67c-3.245,1.462-4.955,4.116-5.245,7.598c-0.281,3.385,1.151,5.979,4.11,7.693
		c0.54,0.313,1.132,0.55,1.626,0.921c0.292,0.22,0.618,0.63,0.623,0.96c0.044,2.889,0.021,5.78,0.007,8.67
		c-0.001,0.131-0.106,0.262-0.226,0.538c-0.813-0.428-1.537-0.893-2.322-1.197c-0.703-0.273-1.494-0.568-2.212-0.499
		c-1.222,0.117-2.062,0.935-2.337,2.155c-0.282,1.25,0.038,2.439,1.183,3.061C21.434,43.382,23.395,44.211,25.482,45.197z"/>
	<path fill="#88753F" d="M46.016,120.234c-1.177-0.571-2.475-0.978-3.509-1.742c-3.416-2.525-4.179-7.081-1.909-10.887
		c4.176-6.999,8.38-13.982,12.572-20.971c1.304-2.174,2.593-4.357,3.912-6.521c1.695-2.781,4.779-2.792,6.461,0.001
		c5.47,9.087,10.851,18.229,16.4,27.268c3.436,5.599-0.151,11.779-5.058,12.662c-0.1,0.018-0.183,0.126-0.274,0.191
		C65.078,120.234,55.547,120.234,46.016,120.234z"/>
	<path fill="#88753F" d="M28.557,63.985c6.793,0,13.586-0.002,20.379,0.001c2.747,0.001,4.107,1.357,4.111,4.084
		c0.009,5.999-3.959,9.974-9.973,9.977c-9.76,0.005-19.52,0.005-29.28,0c-6.252-0.003-10.354-4.41-9.961-10.684
		c0.125-1.999,1.625-3.369,3.759-3.372C14.58,63.978,21.568,63.985,28.557,63.985z"/>
	<path fill="#88753F" d="M92.189,63.985c6.832,0,13.664-0.002,20.496,0.001c2.747,0.001,4.108,1.357,4.111,4.084
		c0.009,5.998-3.959,9.974-9.973,9.977c-9.76,0.005-19.52,0.005-29.28,0c-6.252-0.003-10.354-4.41-9.961-10.684
		c0.125-1.999,1.625-3.369,3.759-3.372C78.291,63.978,85.24,63.985,92.189,63.985z"/>
	<path fill="#88753F" d="M24.933,85.128c2.366,0,4.614,0,7.02,0c0,1.094-0.012,2.171,0.002,3.247c0.03,2.265,1.479,3.71,3.756,3.731
		c1.909,0.017,3.819,0.004,5.956,0.004c-0.402,0.682-0.723,1.236-1.052,1.786c-0.62,1.037-1.394,2.013-1.833,3.121
		c-0.794,2.001-2.205,2.307-4.141,2.126c-5.273-0.494-9.535-4.86-9.702-10.142C24.9,87.755,24.933,86.507,24.933,85.128z"/>
	<path fill="#88753F" d="M78.945,92.109c2.059,0,3.886,0.005,5.713-0.001c2.636-0.008,4.005-1.397,4.013-4.064
		c0.003-0.933,0-1.865,0-2.882c2.335,0,4.611,0,6.888,0.001c0.737,5.701-0.742,10.309-5.857,12.932
		c-1.9,0.974-3.954,1.132-6.039,1.027c-0.257-0.013-0.605-0.195-0.736-0.406C81.622,96.598,80.353,94.458,78.945,92.109z"/>
	<path fill="#88753F" d="M31.476,31.626c2.308,1.023,1.88,4.773,0,6.107C31.476,35.655,31.476,33.654,31.476,31.626z"/>
	<path fill="#88753F" d="M25.12,21.835c0-0.805,0-1.61,0-2.415c0.095,0,0.189-0.001,0.284-0.001c0,0.807,0,1.614,0,2.421
		C25.31,21.839,25.215,21.837,25.12,21.835z"/>
</g>
</svg>
