<?xml version="1.0" encoding="utf-8"?>
<!-- Generator: Adobe Illustrator 22.0.1, SVG Export Plug-In . SVG Version: 6.00 Build 0)  -->
<svg version="1.1" id="圖層_1" xmlns="http://www.w3.org/2000/svg" xmlns:xlink="http://www.w3.org/1999/xlink" x="0px" y="0px"
	 viewBox="0 0 120 120" enable-background="new 0 0 120 120" xml:space="preserve">
<g>
	<path fill="#FFFFFF" d="M0.312,120.234c0-3.276,0-6.551,0-9.924c23.324,0,46.588,0,70.078,0c0,3.324,0,6.624,0,9.924
		C47.031,120.234,23.672,120.234,0.312,120.234z"/>
	<path fill="#FFFFFF" d="M76.989,53.388c0.167,0.274,0.33,0.708,0.628,1.007c13.22,13.239,26.453,26.466,39.683,39.697
		c2.71,2.71,2.71,5.44,0.008,8.147c-2.07,2.073-4.136,4.15-6.216,6.213c-2.44,2.419-5.287,2.412-7.734-0.034
		C90.013,95.081,76.679,81.734,63.322,68.409c-0.589-0.588-0.701-1.001-0.287-1.777C66.147,60.79,70.624,56.397,76.989,53.388z"/>
	<path fill="#FFFFFF" d="M55.644,77.041c0.022,1.302-0.534,2.514-1.54,3.526c-2.284,2.298-4.562,4.603-6.877,6.87
		c-2.197,2.151-5.075,2.139-7.303-0.024c-1.82-1.767-3.595-3.582-5.389-5.376c-7.398-7.398-14.797-14.795-22.193-22.194
		c-2.781-2.782-2.773-5.439,0.013-8.225c2.043-2.043,4.082-4.088,6.126-6.13c2.438-2.435,5.306-2.467,7.721-0.055
		c9.225,9.214,18.438,18.44,27.666,27.652C54.936,74.149,55.637,75.35,55.644,77.041z"/>
	<path fill="#FFFFFF" d="M98.078,35.114c0.014,0.732-0.459,1.914-1.398,2.869c-2.381,2.422-4.758,4.849-7.208,7.2
		c-2.157,2.069-5.039,1.89-7.294-0.362c-7.319-7.31-14.631-14.628-21.946-21.943c-1.932-1.932-3.872-3.857-5.795-5.799
		c-2.314-2.337-2.307-5.207,0.021-7.556c2.199-2.218,4.404-4.43,6.626-6.624c2.243-2.215,5.17-2.248,7.383-0.04
		c9.341,9.319,18.664,18.657,27.997,27.983C97.476,31.854,98.058,33.04,98.078,35.114z"/>
	<path fill="#FFFFFF" d="M77.439,47.625c-9.832,3.938-16.797,10.987-20.797,20.821c-8.61-8.609-17.152-17.15-25.731-25.727
		c4.649-1.984,9.036-4.601,12.667-8.249c3.605-3.622,6.219-7.973,8.182-12.55C60.319,30.488,68.849,39.027,77.439,47.625z"/>
	<path fill="#FFFFFF" d="M10.397,105.15c0-1.99-0.136-3.945,0.035-5.872c0.204-2.303,2.392-4.081,4.823-4.112
		c2.694-0.035,5.389-0.009,8.083-0.009c10.466,0,20.931-0.002,31.397,0.001c3.578,0.001,5.57,1.999,5.577,5.586
		c0.003,1.441,0,2.882,0,4.407C43.679,105.15,27.105,105.15,10.397,105.15z"/>
</g>
</svg>
