<?xml version="1.0" encoding="utf-8"?>
<!-- Generator: Adobe Illustrator 22.0.1, SVG Export Plug-In . SVG Version: 6.00 Build 0)  -->
<svg version="1.1" id="圖層_1" xmlns="http://www.w3.org/2000/svg" xmlns:xlink="http://www.w3.org/1999/xlink" x="0px" y="0px"
	 viewBox="0 0 120 120" enable-background="new 0 0 120 120" xml:space="preserve">
<g>
	<path fill="#FFFFFF" d="M114.998,67.932c0,0.487,0,0.891,0,1.295c0,13.67,0.001,27.341,0,41.011c0,3.345-1.426,4.762-4.791,4.762
		c-32.171,0-64.342,0-96.512,0c-3.362,0-4.801-1.424-4.801-4.753c-0.001-13.629,0-27.259,0-40.888c0-0.446,0-0.893,0-1.427
		C44.251,67.932,79.547,67.932,114.998,67.932z M62.007,79.633c-6.099,0-12.197,0-18.296,0c-5.034,0-10.069-0.016-15.103,0.009
		c-2.1,0.01-3.736,1.478-3.972,3.456c-0.235,1.972,1.079,3.848,3.059,4.287c0.55,0.122,1.138,0.104,1.709,0.104
		c21.693,0.005,43.386,0.004,65.079,0.004c0.369,0,0.74,0.023,1.105-0.013c1.657-0.163,2.841-1.011,3.432-2.569
		c1.011-2.662-0.957-5.27-3.981-5.273C84.028,79.626,73.018,79.633,62.007,79.633z"/>
	<path fill="#FFFFFF" d="M8.894,63.912c0-2.544-0.142-4.96,0.028-7.354c0.407-5.727-0.468-11.218-2.59-16.539
		c-0.453-1.135-0.768-2.327-1.116-3.502c-0.728-2.459,0.403-4.548,2.857-5.231c5.666-1.579,11.337-3.136,17.006-4.705
		c3.819-1.057,7.635-2.121,11.454-3.177c0.419-0.116,0.849-0.193,1.466-0.333c-0.229,0.502-0.359,0.829-0.522,1.139
		c-2.957,5.649-5.902,11.303-8.904,16.926c-0.27,0.504-0.852,0.997-1.393,1.176c-5.313,1.755-10.649,3.439-15.978,5.147
		c-0.523,0.168-1.04,0.358-1.517,0.743c11.425,0,22.851,0,34.49,0c-0.367,0.428-0.584,0.703-0.822,0.958
		c-4.365,4.658-8.728,9.319-13.114,13.956c-0.334,0.353-0.848,0.756-1.281,0.759C22.334,63.927,15.707,63.912,8.894,63.912z"/>
	<path fill="#FFFFFF" d="M37.744,39.276c0.171-0.376,0.3-0.702,0.462-1.012c2.956-5.645,5.927-11.282,8.862-16.938
		c0.368-0.708,0.829-1.093,1.61-1.306c8.86-2.426,17.709-4.89,26.562-7.342c0.152-0.042,0.312-0.059,0.647-0.121
		c-0.188,0.417-0.308,0.727-0.461,1.019c-2.975,5.682-5.939,11.368-8.953,17.029c-0.253,0.476-0.778,0.983-1.276,1.124
		c-8.995,2.547-18.005,5.041-27.014,7.542C38.073,39.302,37.948,39.276,37.744,39.276z"/>
	<path fill="#FFFFFF" d="M39.421,63.832c4.867-5.187,9.565-10.201,14.283-15.197c0.221-0.234,0.622-0.422,0.941-0.422
		c9.532-0.022,19.062-0.018,28.796-0.018c-0.316,0.394-0.513,0.675-0.745,0.922c-4.393,4.687-8.78,9.379-13.201,14.039
		c-0.349,0.369-0.938,0.723-1.416,0.725c-9.329,0.042-18.658,0.031-27.986,0.028C39.943,63.911,39.793,63.877,39.421,63.832z"/>
	<path fill="#FFFFFF" d="M78.725,63.826c4.856-5.175,9.552-10.191,14.274-15.182c0.241-0.255,0.7-0.429,1.058-0.431
		c6.914-0.025,13.827-0.018,20.841-0.018c0,5.206,0,10.374,0,15.631C102.939,63.826,90.944,63.826,78.725,63.826z"/>
	<path fill="#FFFFFF" d="M110.508,19.215c-11.695,3.241-23.208,6.432-34.951,9.687c0.26-0.557,0.397-0.883,0.56-1.194
		c2.956-5.648,5.897-11.303,8.905-16.923c0.281-0.524,0.928-1.023,1.504-1.19c5.177-1.5,10.377-2.926,15.572-4.365
		c2.675-0.741,4.588,0.323,5.346,2.997C108.466,11.835,109.46,15.451,110.508,19.215z"/>
</g>
</svg>
