<?xml version="1.0" encoding="utf-8"?>
<!-- Generator: Adobe Illustrator 22.0.1, SVG Export Plug-In . SVG Version: 6.00 Build 0)  -->
<svg version="1.1" id="圖層_1" xmlns="http://www.w3.org/2000/svg" xmlns:xlink="http://www.w3.org/1999/xlink" x="0px" y="0px"
	 viewBox="0 0 120 120" enable-background="new 0 0 120 120" xml:space="preserve">
<g>
	<path fill="#FFFFFF" d="M120.312,108.047c-1.714,0-3.428,0-5.188,0c-1.06-9.519-5.762-16.272-15.022-18.929
		c-9.272-2.661-16.836,0.567-22.76,8.081c-4.238-5.746-9.867-8.934-17.032-8.934c-7.135,0-12.743,3.159-17.018,8.932
		c-5.855-7.445-13.394-10.722-22.657-8.11c-9.282,2.618-14.025,9.325-15.126,18.85c-1.665,0-3.358,0-5.121,0
		c0-10.758,0-21.482,0-32.39c0.527,0,1.057,0,1.588,0c38.901,0,77.803,0,116.704-0.003c0.544,0,1.087-0.049,1.631-0.075
		C120.312,86.328,120.312,97.188,120.312,108.047z"/>
	<path fill="#FFFFFF" d="M103.906,0.234c0,2.295,0,4.591,0,6.999c-5.353,0-10.568,0-15.852,0c-2.338,9.63-4.655,19.168-7.04,28.99
		c-5.351-5.671-10.575-11.207-15.863-16.812c3.781-4.016,7.51-7.977,11.374-12.081c-10.862,0-21.504,0-32.414,0
		c3.829,4.068,7.545,8.017,11.367,12.078c-5.248,5.565-10.476,11.109-15.864,16.823c-2.37-9.761-4.685-19.291-7.024-28.921
		c-5.218,0-10.436,0-15.871,0c0-2.426,0-4.751,0-7.077C45.781,0.234,74.844,0.234,103.906,0.234z"/>
	<path fill="#FFFFFF" d="M46.719,120.234c0.01-3.823-0.038-7.647,0.042-11.468c0.199-9.506,9.305-15.829,18.193-12.672
		c5.25,1.864,8.858,6.963,8.92,12.672c0.041,3.822,0.024,7.645,0.033,11.468C64.844,120.234,55.781,120.234,46.719,120.234z"/>
	<path fill="#FFFFFF" d="M12.734,120.234c0.014-4.48-0.329-8.997,0.126-13.432c0.708-6.9,7.183-11.939,14.073-11.486
		c7.151,0.47,12.674,6.156,12.764,13.215c0.05,3.9-0.003,7.802-0.01,11.703C30.703,120.234,21.719,120.234,12.734,120.234z"/>
	<path fill="#FFFFFF" d="M80.937,120.234c-0.004-3.94-0.07-7.881,0.001-11.82c0.12-6.676,5.451-12.452,11.938-13.041
		c7.114-0.646,13.346,3.746,14.758,10.509c0.307,1.472,0.331,3.02,0.341,4.535c0.022,3.272-0.05,6.545-0.084,9.818
		C98.906,120.234,89.922,120.234,80.937,120.234z"/>
	<path fill="#FFFFFF" d="M60.352,24.569c3.238,3.434,6.423,6.81,9.607,10.187c2.786,2.955,5.558,5.923,8.37,8.852
		c0.514,0.535,0.681,1.002,0.499,1.741c-1.828,7.42-3.626,14.846-5.407,22.277c-0.169,0.705-0.499,0.905-1.201,0.903
		c-7.927-0.023-15.854-0.025-23.781,0.002c-0.768,0.003-1.075-0.24-1.254-0.987c-1.767-7.394-3.583-14.776-5.338-22.174
		c-0.111-0.47,0-1.201,0.308-1.53c5.911-6.341,11.866-12.64,17.813-18.947C60.048,24.811,60.145,24.744,60.352,24.569z"/>
	<path fill="#FFFFFF" d="M35.836,50.487c1.485,6.125,2.908,11.991,4.353,17.952c-7.062,0-14.029,0-21.279,0
		C24.595,62.409,30.137,56.531,35.836,50.487z"/>
	<path fill="#FFFFFF" d="M101.751,68.465c-7.263,0-14.203,0-21.318,0c1.446-5.972,2.872-11.858,4.355-17.982
		C90.453,56.489,96.002,62.371,101.751,68.465z"/>
</g>
</svg>
