<?xml version="1.0" encoding="utf-8"?>
<!-- Generator: Adobe Illustrator 22.0.1, SVG Export Plug-In . SVG Version: 6.00 Build 0)  -->
<svg version="1.1" id="圖層_1" xmlns="http://www.w3.org/2000/svg" xmlns:xlink="http://www.w3.org/1999/xlink" x="0px" y="0px"
	 viewBox="0 0 120 120" enable-background="new 0 0 120 120" xml:space="preserve">
<path fill="#88753F" d="M88.96,56.37c3.473-3.807,4.369-9.409,2.249-14.012c-1.055-2.292-3.559-2.781-5.388-1.05
	c-0.234,0.221-0.457,0.454-0.685,0.682C69.87,57.256,54.603,72.522,39.344,87.795c-0.274,0.274-0.46,0.636-0.7,0.974
	c-0.401-0.33-0.594-0.484-0.781-0.644c-4.501-3.841-11.466-4.297-16.101-0.649c-2.646,2.083-5.155,4.523-7.137,7.232
	c-5.644,7.716-1.8,18.047,7.296,20.199c0.41,0.097,0.815,0.218,1.223,0.327c1.074,0,2.148,0,3.223,0
	c4.169-0.646,7.07-3.252,9.921-6.118C53.408,91.908,70.596,74.765,87.76,57.6C88.165,57.195,88.574,56.792,88.96,56.37z
	 M31.598,100.064c-1.488,1.549-3.008,3.067-4.557,4.555c-1.021,0.981-2.25,1.232-3.566,0.644c-1.226-0.548-1.832-1.544-2.104-3
	c0.384-0.736,0.638-1.59,1.177-2.184c1.418-1.562,2.944-3.028,4.458-4.5c1.361-1.324,3.365-1.327,4.623-0.054
	C32.876,96.786,32.894,98.716,31.598,100.064z"/>
<path fill="#88753F" d="M100.397,88.683c-3.731-3.648-9.57-4.732-14.33-2.582c-1.407,0.635-2.677,1.573-4.185,2.477
	c-2.577-2.597-5.243-5.284-7.808-7.868c-3.009,2.993-6.014,5.982-9.047,8.999c0.038,0.047,0.117,0.165,0.216,0.263
	c7.209,7.21,14.391,14.448,21.661,21.597c1.118,1.1,2.584,1.9,3.998,2.627c1.025,0.527,2.229,0.705,3.353,1.038
	c1.074,0,2.148,0,3.223,0c1.087-0.324,2.212-0.558,3.257-0.986c8.288-3.397,10.504-13.797,4.399-20.743
	C103.65,91.815,102.008,90.259,100.397,88.683z M98.15,104.574c-1.259,1.306-3.233,1.335-4.614,0.003
	c-1.546-1.49-3.07-3.006-4.552-4.56c-0.977-1.023-1.21-2.252-0.61-3.568c0.561-1.231,1.573-1.798,3.344-1.9
	c0.403,0.214,1.253,0.475,1.848,1.017c1.56,1.42,3.029,2.943,4.497,4.461C99.345,101.353,99.358,103.32,98.15,104.574z"/>
<path fill="#88753F" d="M112.948,5.234c-35.091,0-70.182,0-105.273,0C5.822,6.099,5.281,7.574,5.287,9.568
	c0.052,16.72,0.029,33.44,0.03,50.16c0,2.735,1.192,3.935,3.909,3.935c14.679,0.001,29.359-0.005,44.038,0.017
	c0.778,0.001,1.32-0.215,1.872-0.769c8.666-8.701,17.428-17.308,26.009-26.092c4.617-4.726,12.653-3.595,15.643,2.261
	c3.493,6.84,2.307,15.755-2.919,21.432c-0.917,0.996-1.998,1.842-3.003,2.757c0.062,0.132,0.124,0.263,0.186,0.395
	c0.357,0,0.714,0,1.071,0c6.373,0,12.746-0.039,19.119,0.023c2.005,0.02,3.382-0.678,4.07-2.594c0-17.832,0-35.664,0-53.496
	C114.524,6.81,113.736,6.022,112.948,5.234z M24.437,19.231c1.9-0.009,3.503,1.567,3.529,3.466c0.025,1.945-1.61,3.582-3.554,3.558
	c-1.898-0.024-3.476-1.628-3.469-3.526C20.949,20.829,22.536,19.24,24.437,19.231z M38.5,49.693
	c-1.898-0.009-3.486-1.599-3.495-3.499c-0.009-1.944,1.641-3.567,3.584-3.525c1.9,0.041,3.464,1.658,3.438,3.556
	C42.001,48.124,40.397,49.702,38.5,49.693z M42.401,24.992c-2.73,3.947-5.499,7.868-8.252,11.799
	c-2.597,3.708-5.202,7.409-7.785,11.126c-0.766,1.103-1.766,1.732-3.14,1.781c-1.322-0.09-2.378-0.656-3.018-1.868
	c-0.663-1.251-0.585-2.49,0.207-3.652c1.209-1.773,2.449-3.525,3.68-5.283c4.162-5.946,8.322-11.894,12.489-17.836
	c1.045-1.489,2.438-2.094,3.896-1.732C43.011,19.956,43.973,22.719,42.401,24.992z M63.529,47.44
	c-0.039,1.904-1.407,3.319-3.198,3.332c-1.79,0.013-3.208-1.401-3.234-3.291c-0.029-2.106-0.03-4.212,0-6.318
	c0.027-1.888,1.447-3.289,3.247-3.271c1.758,0.018,3.129,1.392,3.182,3.23c0.031,1.07,0.006,2.142,0.006,3.213
	C63.533,45.37,63.55,46.405,63.529,47.44z M63.525,28.237c-0.06,1.823-1.467,3.202-3.216,3.2c-1.749-0.002-3.175-1.385-3.208-3.205
	c-0.039-2.177-0.044-4.356,0.003-6.532c0.038-1.762,1.448-3.117,3.157-3.144c1.753-0.028,3.193,1.338,3.262,3.149
	c0.042,1.105,0.008,2.213,0.008,3.319C63.531,26.096,63.56,27.168,63.525,28.237z"/>
</svg>
